HIERARCHY
ROOT hip
{
	OFFSET 0.000000 103.560692 0.219151
	CHANNELS 6 Xposition Yposition Zposition Zrotation Xrotation Yrotation
	JOINT pelvis
	{
		OFFSET 0.000000 1.955040 1.591925
		CHANNELS 3 Zrotation Xrotation Yrotation
		JOINT lThigh
		{
			OFFSET 8.341582 -7.629402 -0.646910
			CHANNELS 3 Zrotation Xrotation Yrotation
			JOINT lShin
			{
				OFFSET 2.185763 -45.093132 -0.705710
				CHANNELS 3 Zrotation Xrotation Yrotation
				JOINT lFoot
				{
					OFFSET 0.730976 -46.379768 -2.264282
					CHANNELS 3 Zrotation Xrotation Yrotation
					JOINT lToe
					{
						OFFSET 2.797621 -4.200020 10.742415
						CHANNELS 3 Zrotation Xrotation Yrotation
						JOINT lBigToe
						{
							OFFSET -2.433708 -0.269072 1.841711
							CHANNELS 3 Zrotation Xrotation Yrotation
							End Site
							{
								OFFSET -10.527346 -33.657166 -1.340707
							}
						}
					}
				}
			}
		}
		JOINT rThigh
		{
			OFFSET -8.341582 -7.629402 -0.646910
			CHANNELS 3 Zrotation Xrotation Yrotation
			JOINT rShin
			{
				OFFSET -2.185763 -45.093132 -0.705710
				CHANNELS 3 Zrotation Xrotation Yrotation
				JOINT rFoot
				{
					OFFSET -0.730976 -46.379768 -2.264282
					CHANNELS 3 Zrotation Xrotation Yrotation
					JOINT rToe
					{
						OFFSET -2.797621 -4.200019 10.742415
						CHANNELS 3 Zrotation Xrotation Yrotation
						JOINT rBigToe
						{
							OFFSET 2.433708 -0.269072 1.841711
							CHANNELS 3 Zrotation Xrotation Yrotation
							End Site
							{
								OFFSET 0.000000 24.298409 -0.425647
							}
						}
					}
				}
			}
		}
	}
	JOINT abdomen
	{
		OFFSET 0.000000 1.841293 -3.551421
		CHANNELS 3 Zrotation Xrotation Yrotation
		JOINT abdomen2
		{
			OFFSET 0.000000 5.439911 3.419600
			CHANNELS 3 Zrotation Xrotation Yrotation
			JOINT chest
			{
				OFFSET 0.000000 14.715073 -2.918270
				CHANNELS 3 Zrotation Xrotation Yrotation
				JOINT neck
				{
					OFFSET 0.000000 26.294655 -1.248052
					CHANNELS 3 Zrotation Xrotation Yrotation
					JOINT head
					{
						OFFSET 0.000000 8.807068 1.063695
						CHANNELS 3 Zrotation Xrotation Yrotation
						JOINT rEye
						{
							OFFSET -3.030866 6.632080 7.702687
							CHANNELS 3 Zrotation Xrotation Yrotation
							End Site
							{
								OFFSET 2.969555 -11.022598 8.626689
							}
						}
						JOINT lEye
						{
							OFFSET 3.030866 6.632080 7.702687
							CHANNELS 3 Zrotation Xrotation Yrotation
							End Site
							{
								OFFSET 0.000000 -15.881760 10.104412
							}
						}
						JOINT upperJaw
						{
							OFFSET 0.000000 1.922699 2.891887
							CHANNELS 3 Zrotation Xrotation Yrotation
							End Site
							{
								OFFSET 0.000000 -19.386169 10.230839
							}
						}
						JOINT lowerJaw
						{
							OFFSET 0.000000 1.857620 2.686640
							CHANNELS 3 Zrotation Xrotation Yrotation
							JOINT tongueBase
							{
								OFFSET 0.000000 -3.019135 2.746916
								CHANNELS 3 Zrotation Xrotation Yrotation
								JOINT tongue01
								{
									OFFSET 0.000000 0.664124 0.223355
									CHANNELS 3 Zrotation Xrotation Yrotation
									JOINT tongue02
									{
										OFFSET 0.000000 0.339737 0.715627
										CHANNELS 3 Zrotation Xrotation Yrotation
										JOINT tongue03
										{
											OFFSET 0.000000 0.123444 0.730634
											CHANNELS 3 Zrotation Xrotation Yrotation
											JOINT tongue04
											{
												OFFSET 0.000000 0.017212 0.737415
												CHANNELS 3 Zrotation Xrotation Yrotation
												JOINT tongue05
												{
													OFFSET 0.000000 -0.021011 0.632440
													CHANNELS 3 Zrotation Xrotation Yrotation
													JOINT tongueTip
													{
														OFFSET 0.000000 -0.014404 0.601796
														CHANNELS 3 Zrotation Xrotation Yrotation
														End Site
														{
															OFFSET -14.139406 -2.625778 0.472826
														}
													}
												}
											}
										}
									}
								}
							}
						}
					}
				}
				JOINT rCollar
				{
					OFFSET -2.109295 21.452370 3.768136
					CHANNELS 3 Zrotation Xrotation Yrotation
					JOINT rShldr
					{
						OFFSET -11.491621 -2.568573 -4.940255
						CHANNELS 3 Zrotation Xrotation Yrotation
						JOINT rForeArm
						{
							OFFSET -28.789030 -0.213806 2.098380
							CHANNELS 3 Zrotation Xrotation Yrotation
							JOINT rHand
							{
								OFFSET -22.260895 -0.869583 10.391586
								CHANNELS 3 Zrotation Xrotation Yrotation
								JOINT rThumb1
								{
									OFFSET -0.628075 0.137405 2.362409
									CHANNELS 3 Zrotation Xrotation Yrotation
									JOINT rThumb2
									{
										OFFSET 0.085205 -0.600235 3.826079
										CHANNELS 3 Zrotation Xrotation Yrotation
										JOINT rThumb3
										{
											OFFSET -1.255478 -0.879211 2.439162
											CHANNELS 3 Zrotation Xrotation Yrotation
											End Site
											{
												OFFSET -2.963715 0.538574 4.059553
											}
										}
									}
								}
								JOINT rCarpal1
								{
									OFFSET -0.855530 1.026047 1.621985
									CHANNELS 3 Zrotation Xrotation Yrotation
									JOINT rIndex1
									{
										OFFSET -3.951324 0.390884 3.873290
										CHANNELS 3 Zrotation Xrotation Yrotation
										JOINT rIndex2
										{
											OFFSET -3.071884 -1.259598 2.506104
											CHANNELS 3 Zrotation Xrotation Yrotation
											JOINT rIndex3
											{
												OFFSET -1.394112 -1.446640 1.203302
												CHANNELS 3 Zrotation Xrotation Yrotation
												End Site
												{
													OFFSET -3.392448 -1.258026 0.533405
												}
											}
										}
									}
									JOINT rMid1
									{
										OFFSET -5.422974 0.107910 2.002650
										CHANNELS 3 Zrotation Xrotation Yrotation
										JOINT rMid2
										{
											OFFSET -3.599533 -1.323776 2.090647
											CHANNELS 3 Zrotation Xrotation Yrotation
											JOINT rMid3
											{
												OFFSET -1.360191 -1.598495 1.068055
												CHANNELS 3 Zrotation Xrotation Yrotation
												End Site
												{
													OFFSET -4.087769 -0.460876 0.069540
												}
											}
										}
									}
								}
								JOINT rCarpal2
								{
									OFFSET -1.942749 0.556229 -0.337217
									CHANNELS 3 Zrotation Xrotation Yrotation
									JOINT rRing1
									{
										OFFSET -4.762787 -0.121170 2.349089
										CHANNELS 3 Zrotation Xrotation Yrotation
										JOINT rRing2
										{
											OFFSET -3.380348 -1.337097 1.356700
											CHANNELS 3 Zrotation Xrotation Yrotation
											JOINT rRing3
											{
												OFFSET -1.430290 -1.499649 0.914224
												CHANNELS 3 Zrotation Xrotation Yrotation
												End Site
												{
													OFFSET -1.783272 -2.215851 -0.391895
												}
											}
										}
									}
									JOINT rPinky1
									{
										OFFSET -5.232559 -1.313721 0.336493
										CHANNELS 3 Zrotation Xrotation Yrotation
										JOINT rPinky2
										{
											OFFSET -2.217606 -1.389603 0.800693
											CHANNELS 3 Zrotation Xrotation Yrotation
											JOINT rPinky3
											{
												OFFSET -0.886887 -1.462280 0.774199
												CHANNELS 3 Zrotation Xrotation Yrotation
												End Site
												{
													OFFSET 14.139406 -2.625778 0.472826
												}
											}
										}
									}
								}
							}
						}
					}
				}
				JOINT lCollar
				{
					OFFSET 2.109295 21.452370 3.768136
					CHANNELS 3 Zrotation Xrotation Yrotation
					JOINT lShldr
					{
						OFFSET 11.491621 -2.568573 -4.940255
						CHANNELS 3 Zrotation Xrotation Yrotation
						JOINT lForeArm
						{
							OFFSET 28.789030 -0.213806 2.098380
							CHANNELS 3 Zrotation Xrotation Yrotation
							JOINT lHand
							{
								OFFSET 22.260895 -0.869583 10.391586
								CHANNELS 3 Zrotation Xrotation Yrotation
								JOINT lThumb1
								{
									OFFSET 0.628075 0.137405 2.362409
									CHANNELS 3 Zrotation Xrotation Yrotation
									JOINT lThumb2
									{
										OFFSET -0.085205 -0.600235 3.826079
										CHANNELS 3 Zrotation Xrotation Yrotation
										JOINT lThumb3
										{
											OFFSET 1.255478 -0.879211 2.439162
											CHANNELS 3 Zrotation Xrotation Yrotation
											End Site
											{
												OFFSET 2.963715 0.538574 4.059553
											}
										}
									}
								}
								JOINT lCarpal1
								{
									OFFSET 0.855530 1.026047 1.621985
									CHANNELS 3 Zrotation Xrotation Yrotation
									JOINT lIndex1
									{
										OFFSET 3.951324 0.390884 3.873290
										CHANNELS 3 Zrotation Xrotation Yrotation
										JOINT lIndex2
										{
											OFFSET 3.071884 -1.259598 2.506104
											CHANNELS 3 Zrotation Xrotation Yrotation
											JOINT lIndex3
											{
												OFFSET 1.394112 -1.446640 1.203302
												CHANNELS 3 Zrotation Xrotation Yrotation
												End Site
												{
													OFFSET 3.392448 -1.258026 0.533405
												}
											}
										}
									}
									JOINT lMid1
									{
										OFFSET 5.422974 0.107910 2.002650
										CHANNELS 3 Zrotation Xrotation Yrotation
										JOINT lMid2
										{
											OFFSET 3.599533 -1.323776 2.090647
											CHANNELS 3 Zrotation Xrotation Yrotation
											JOINT lMid3
											{
												OFFSET 1.360191 -1.598495 1.068055
												CHANNELS 3 Zrotation Xrotation Yrotation
												End Site
												{
													OFFSET 4.087769 -0.460876 0.069540
												}
											}
										}
									}
								}
								JOINT lCarpal2
								{
									OFFSET 1.942749 0.556229 -0.337217
									CHANNELS 3 Zrotation Xrotation Yrotation
									JOINT lRing1
									{
										OFFSET 4.762787 -0.121170 2.349089
										CHANNELS 3 Zrotation Xrotation Yrotation
										JOINT lRing2
										{
											OFFSET 3.380348 -1.337097 1.356700
											CHANNELS 3 Zrotation Xrotation Yrotation
											JOINT lRing3
											{
												OFFSET 1.430290 -1.499649 0.914224
												CHANNELS 3 Zrotation Xrotation Yrotation
												End Site
												{
													OFFSET 1.783272 -2.215851 -0.391895
												}
											}
										}
									}
									JOINT lPinky1
									{
										OFFSET 5.232559 -1.313721 0.336493
										CHANNELS 3 Zrotation Xrotation Yrotation
										JOINT lPinky2
										{
											OFFSET 2.217606 -1.389603 0.800693
											CHANNELS 3 Zrotation Xrotation Yrotation
											JOINT lPinky3
											{
												OFFSET 0.886887 -1.462280 0.774199
												CHANNELS 3 Zrotation Xrotation Yrotation
												End Site
												{
													OFFSET -10.295957 -17.050110 17.461308
												}
											}
										}
									}
								}
							}
						}
					}
				}
				JOINT rPectoral
				{
					OFFSET -6.358840 6.360771 6.369920
					CHANNELS 3 Zrotation Xrotation Yrotation
					End Site
					{
						OFFSET 10.295957 -17.050110 17.461308
					}
				}
				JOINT lPectoral
				{
					OFFSET 6.358840 6.360771 6.369920
					CHANNELS 3 Zrotation Xrotation Yrotation
					End Site
					{
						OFFSET 10.295957 -17.050110 17.461308
					}
				}
			}
		}
	}
}
MOTION
Frames:	4
Frame Time:	0.0333333
0.000000 1.054437 0.000000 -0.611375 -3.581645 5.487884 0.000000 0.000000 0.000000 -3.701649 -0.360265 -3.143811 -0.606300 11.585074 -4.850704 9.535801 -20.230684 -8.886309 4.838871 -8.243439 1.623998 0.000000 0.000000 0.000000 -0.017536 -23.049425 0.533148 -1.876874 53.748455 -3.497343 -0.368233 -6.834526 0.747918 -4.587929 -9.410361 -1.544432 0.000000 0.000000 0.000000 7.061372 -7.360246 -3.433829 0.000000 0.000000 0.000000 -5.917996 4.328201 -1.401379 -0.035369 -10.793448 -0.833858 -4.727661 12.442970 0.660597 0.000000 0.000000 0.000000 0.000000 0.000000 0.000000 0.000000 0.000000 0.000000 0.000000 0.000000 0.000000 0.000000 0.000000 0.000000 0.000000 0.000000 0.000000 0.000000 0.000000 0.000000 0.000000 0.000000 0.000000 0.000000 0.000000 0.000000 0.000000 0.000000 0.000000 0.000000 0.000000 0.000000 7.864927 -0.530526 -6.945263 56.256432 24.309980 -4.944154 -0.636448 1.445135 -16.579763 1.390247 0.939682 -1.313613 -20.278101 15.997745 -11.245070 -5.516206 -14.190940 9.555255 -16.386185 20.674324 16.306753 0.000000 0.000000 0.000000 -10.344722 -8.555511 -17.047894 -7.139641 -4.207025 -1.746755 -12.634918 -9.968566 -2.356016 -8.647417 -3.307343 -7.176109 -0.594737 3.049747 -3.815813 0.477367 4.595480 -2.175193 0.000000 0.000000 0.000000 -4.053409 -6.935108 0.570711 16.377953 9.700567 -7.263687 1.274629 8.359100 -3.952725 -18.864351 -24.497574 -13.525259 48.465355 21.906361 -10.696066 34.311016 26.749933 -1.842245 -8.645298 -0.440781 6.238447 -58.023392 7.432350 0.628048 -2.203381 -10.207809 12.771510 -4.783716 1.966813 7.917951 15.319375 21.766415 8.847219 9.897357 -11.660407 7.278462 18.869974 24.455250 -9.597977 0.000000 0.000000 0.000000 11.364023 -8.970807 17.507399 7.742449 -6.475732 0.297233 7.537374 -5.845239 1.275353 9.657770 -3.689982 7.578338 1.672497 2.702245 3.958704 -3.523009 6.268773 1.440409 0.000000 0.000000 0.000000 5.501368 -6.680588 1.170439 -14.897585 10.505441 6.875091 -11.617700 10.916432 0.445627 20.891180 -24.279835 15.016870 -47.080284 22.724037 10.346928 -40.793648 22.744884 -2.181902 0.228797 -0.011898 -0.671899 -0.206991 -0.010648 0.607846 
-0.753498 1.496925 3.843301 -1.519221 -3.626438 6.933941 0.000000 0.000000 0.000000 -2.160622 4.151919 -4.033702 -0.004659 6.696045 -4.350871 9.119431 -19.814453 -8.933372 5.014886 -8.316728 1.565607 0.000000 0.000000 0.000000 2.664375 -25.533810 4.156337 -0.973512 45.242882 -8.005621 1.107427 -8.663491 1.731198 -4.509802 -1.727003 -1.656205 0.000000 0.000000 0.000000 3.577366 -6.878954 -5.935056 0.000000 0.000000 0.000000 0.900970 5.409521 -4.619402 -0.682283 -12.638533 0.972634 -5.773276 13.451053 2.879381 0.000000 0.000000 0.000000 0.000000 0.000000 0.000000 0.000000 0.000000 0.000000 0.000000 0.000000 0.000000 0.000000 0.000000 0.000000 0.000000 0.000000 0.000000 0.000000 0.000000 0.000000 0.000000 0.000000 0.000000 0.000000 0.000000 0.000000 0.000000 0.000000 0.000000 0.000000 0.000000 0.000000 6.981232 -0.645046 -7.999318 56.968594 22.673983 -10.045478 -0.442317 3.797212 -16.522509 -0.196127 0.010576 -4.611879 -20.529640 16.062656 -11.364552 -5.516206 -14.190940 9.555255 -16.595104 21.008324 16.199598 0.000000 0.000000 0.000000 -10.258796 -8.541570 -17.123013 -7.139641 -4.207025 -1.746755 -12.598453 -9.931646 -2.344168 -8.555247 -3.262694 -7.173056 -0.432308 3.157386 -3.808476 0.644182 4.723098 -2.152819 0.000000 0.000000 0.000000 -3.924805 -6.921483 0.647658 16.701523 9.810743 -7.275091 1.451387 8.485413 -3.940521 -18.802540 -24.720045 -13.455290 49.098324 22.070530 -10.799174 34.710396 26.944260 -1.845789 -5.683522 -0.374058 5.899442 -59.013721 8.603727 -4.273459 -2.712147 -10.555681 13.743876 -7.285247 3.084529 8.059340 15.542282 21.917095 8.968185 9.936341 -11.631076 7.437595 19.211342 24.804832 -9.505645 0.000000 0.000000 0.000000 11.279066 -8.956184 17.582291 7.657655 -6.394507 0.284643 7.537374 -5.845239 1.275353 9.565350 -3.646082 7.574830 1.509725 2.809305 3.950127 -3.691442 6.395605 1.425233 0.000000 0.000000 0.000000 5.372072 -6.667920 1.094977 -15.217323 10.630420 6.898702 -11.798807 11.032605 0.433563 20.826405 -24.503706 14.952127 -47.721127 22.890635 10.489454 -41.193085 22.959923 -2.143551 0.261802 -0.013836 -0.768856 -0.192501 -0.009831 0.565286 
-1.415231 1.388457 6.778267 -1.086388 -3.176615 8.437600 0.000000 0.000000 0.000000 -1.296207 6.823335 -3.135180 -0.757075 3.797946 -6.345086 9.257477 -19.752317 -8.919742 5.573686 -8.713392 1.401180 0.000000 0.000000 0.000000 3.407221 -28.003283 7.564543 0.275956 39.821819 -12.293827 2.987635 -8.462659 2.665197 -8.463185 3.639277 -0.822928 0.000000 0.000000 0.000000 -1.482640 -6.388505 -7.204809 0.000000 0.000000 0.000000 6.653424 5.967165 -6.741935 1.619133 -12.812266 1.131153 -8.612837 12.957082 4.642764 0.000000 0.000000 0.000000 0.000000 0.000000 0.000000 0.000000 0.000000 0.000000 0.000000 0.000000 0.000000 0.000000 0.000000 0.000000 0.000000 0.000000 0.000000 0.000000 0.000000 0.000000 0.000000 0.000000 0.000000 0.000000 0.000000 0.000000 0.000000 0.000000 0.000000 0.000000 0.000000 0.000000 6.842652 -0.777702 -9.059173 56.645565 18.692463 -14.692200 -0.078958 7.880950 -15.437552 1.141823 0.620611 -5.233463 -21.183468 16.244633 -11.681458 -5.516206 -14.190940 9.555255 -17.132818 21.898426 15.931821 0.000000 0.000000 0.000000 -10.032828 -8.504011 -17.321566 -7.139641 -4.207025 -1.746755 -12.501821 -9.833931 -2.313259 -8.314483 -3.139027 -7.165440 0.001487 3.435991 -3.790343 1.085455 5.060868 -2.095913 0.000000 0.000000 0.000000 -3.583429 -6.885394 0.848464 17.558077 10.103006 -7.309537 1.920219 8.817426 -3.909619 -18.629856 -25.305012 -13.271691 50.778049 22.502794 -11.088289 35.768700 27.460089 -1.864355 -3.068219 -0.395553 6.034181 -58.533882 12.321339 -9.763041 -1.973424 -12.825755 16.360153 -9.317549 4.414894 6.231677 16.119701 22.322163 9.286695 10.038750 -11.552972 7.858267 20.091516 25.734377 -9.266212 0.000000 0.000000 0.000000 11.056014 -8.916747 17.780674 7.433274 -6.179518 0.251741 7.537374 -5.845239 1.275353 9.323592 -3.524049 7.566025 1.079221 3.092595 3.928866 -4.133723 6.734335 1.383691 0.000000 0.000000 0.000000 5.028607 -6.634690 0.897863 -16.063654 10.959678 6.964594 -12.276383 11.342448 0.401972 20.646584 -25.092432 14.782144 -49.422676 23.323856 10.877872 -42.252949 23.527315 -2.033781 0.295945 -0.015900 -0.869165 -0.195154 -0.009979 0.573079 
-1.873690 0.920301 9.796113 -0.525899 -2.373619 9.292525 0.000000 0.000000 0.000000 -0.796247 8.374531 -1.866480 -1.420756 2.693485 -7.664639 9.752420 -21.101398 -8.697659 6.400373 -9.257875 1.151680 0.000000 0.000000 0.000000 4.012036 -30.907894 10.181595 0.417941 35.573368 -13.062631 4.911468 -7.830413 3.741577 -7.832943 2.653834 -1.221316 0.000000 0.000000 0.000000 -5.701890 -6.125746 -7.703286 0.000000 0.000000 0.000000 11.040405 6.627643 -8.118167 3.284746 -13.723320 1.016749 -10.227990 13.111142 5.578036 0.000000 0.000000 0.000000 0.000000 0.000000 0.000000 0.000000 0.000000 0.000000 0.000000 0.000000 0.000000 0.000000 0.000000 0.000000 0.000000 0.000000 0.000000 0.000000 0.000000 0.000000 0.000000 0.000000 0.000000 0.000000 0.000000 0.000000 0.000000 0.000000 0.000000 0.000000 0.000000 0.000000 6.892377 -0.945226 -10.291521 56.001934 15.655410 -19.448711 -0.065633 7.070126 -13.537154 0.987555 0.462582 -7.090899 -22.073397 16.541258 -12.127020 -5.516206 -14.190940 9.555255 -17.848747 23.171343 15.616256 0.000000 0.000000 0.000000 -9.718739 -8.444864 -17.605171 -6.822506 -3.901492 -1.709974 -12.364538 -9.695140 -2.269369 -7.970576 -2.966996 -7.155437 0.617366 3.832267 -3.768344 1.712802 5.540968 -2.020993 0.000000 0.000000 0.000000 -3.093296 -6.835820 1.122801 18.775539 10.520808 -7.371555 2.589701 9.282167 -3.867267 -18.351807 -26.128048 -13.019240 53.178581 23.108881 -11.541490 37.279556 28.199776 -1.917221 -0.704452 -0.453679 6.554827 -55.963837 17.252666 -16.451731 -1.824082 -14.983651 18.614843 -8.397218 4.035370 5.137658 16.895714 22.920076 9.725286 10.182787 -11.440709 8.455708 21.255625 27.067112 -8.952693 0.000000 0.000000 0.000000 10.745695 -8.854818 18.064178 7.115017 -5.873849 0.206632 7.400698 -5.706325 1.249960 8.980566 -3.350125 7.553538 0.467734 3.495319 3.902352 -4.759279 7.219467 1.327843 0.000000 0.000000 0.000000 4.535874 -6.589223 0.628401 -17.268181 11.425812 7.066761 -12.955311 11.782857 0.361847 20.361181 -25.920242 14.550840 -51.854229 23.920645 11.455298 -43.771919 24.328638 -1.848685 0.335901 -0.018392 -0.986562 -0.211525 -0.010906 0.621164 
